<?xml version="1.0" encoding="UTF-8" standalone="no"?>
<!-- Generator: Gravit.io -->

<svg
   xmlns:dc="http://purl.org/dc/elements/1.1/"
   xmlns:cc="http://creativecommons.org/ns#"
   xmlns:rdf="http://www.w3.org/1999/02/22-rdf-syntax-ns#"
   xmlns:svg="http://www.w3.org/2000/svg"
   xmlns="http://www.w3.org/2000/svg"
   xmlns:sodipodi="http://sodipodi.sourceforge.net/DTD/sodipodi-0.dtd"
   xmlns:inkscape="http://www.inkscape.org/namespaces/inkscape"
   style="isolation:isolate"
   viewBox="0 0 525 568"
   width="525pt"
   height="568pt"
   version="1.1"
   id="svg1399"
   sodipodi:docname="logo.svg"
   inkscape:version="0.92.5 (2060ec1f9f, 2020-04-08)">
  <metadata
     id="metadata1403">
    <rdf:RDF>
      <cc:Work
         rdf:about="">
        <dc:format>image/svg+xml</dc:format>
        <dc:type
           rdf:resource="http://purl.org/dc/dcmitype/StillImage" />
        <dc:title></dc:title>
      </cc:Work>
    </rdf:RDF>
  </metadata>
  <sodipodi:namedview
     pagecolor="#ffffff"
     bordercolor="#666666"
     borderopacity="1"
     objecttolerance="10"
     gridtolerance="10"
     guidetolerance="10"
     inkscape:pageopacity="0"
     inkscape:pageshadow="2"
     inkscape:window-width="1680"
     inkscape:window-height="1018"
     id="namedview1401"
     showgrid="false"
     showguides="true"
     inkscape:guide-bbox="true"
     inkscape:zoom="4"
     inkscape:cx="187.11392"
     inkscape:cy="324.22027"
     inkscape:window-x="0"
     inkscape:window-y="32"
     inkscape:window-maximized="1"
     inkscape:current-layer="svg1399">
    <sodipodi:guide
       position="54.057065,317.00433"
       orientation="1,0"
       id="guide1457"
       inkscape:locked="false" />
    <sodipodi:guide
       position="181.73936,325.3208"
       orientation="1,0"
       id="guide1459"
       inkscape:locked="false" />
    <sodipodi:guide
       position="130.61752,311.86769"
       orientation="0,1"
       id="guide1473"
       inkscape:locked="false" />
    <sodipodi:guide
       position="111.21316,195.96346"
       orientation="1,0"
       id="guide1537"
       inkscape:locked="false" />
    <sodipodi:guide
       position="107.62493,192.99106"
       orientation="1,0"
       id="guide1539"
       inkscape:locked="false" />
    <sodipodi:guide
       position="125.56882,189.39099"
       orientation="1,0"
       id="guide1541"
       inkscape:locked="false" />
    <sodipodi:guide
       position="121.68955,195.19248"
       orientation="1,0"
       id="guide1543"
       inkscape:locked="false" />
    <sodipodi:guide
       position="116.37891,283.02832"
       orientation="1,0"
       id="guide1578"
       inkscape:locked="false" />
    <sodipodi:guide
       position="104.4375,218.625"
       orientation="0,1"
       id="guide1618"
       inkscape:locked="false" />
  </sodipodi:namedview>
  <defs
     id="defs1373">
    <clipPath
       id="_clipPath_kWoMo3TJqrVlgZtah8BdLtfujWcDC0Rk">
      <rect
         width="525"
         height="568"
         id="rect1370" />
    </clipPath>
  </defs>
  <path
     style="vector-effect:non-scaling-stroke;fill:none;stroke:#000000;stroke-width:1;stroke-linecap:square;stroke-linejoin:miter;stroke-miterlimit:3"
     inkscape:connector-curvature="0"
     id="path1375"
     stroke-miterlimit="3"
     d="M 83.566,204.118 116.382,154 l 36.052,50.118" />
  <path
     style="fill:#000000"
     inkscape:connector-curvature="0"
     id="path1377"
     d="m 182,218.72 h -10.189 v 5.898 h 8.995 v 4.145 h -8.995 v 8.131 h -4.498 V 214.575 H 182 Z" />
  <path
     style="fill:#5d5d5d"
     inkscape:connector-curvature="0"
     id="path1379"
     d="m 129.718,236.894 v -22.319 h 4.498 v 22.319 z" />
  <path
     style="fill:#5d5d5d"
     inkscape:connector-curvature="0"
     id="path1381"
     d="m 99.621,236.894 v -22.319 h 4.497 v 22.319 z" />
  <path
     style="fill:#000000"
     inkscape:connector-curvature="0"
     id="path1383"
     d="m 75.905,236.894 h -4.22 l -0.027,-13.392 -5.72,11.032 H 63.912 L 58.22,223.789 v 13.105 H 54 v -22.319 h 3.72 l 7.274,13.869 7.163,-13.869 h 3.693 z" />
  <g
     id="g1389">
    <circle
       style="vector-effect:non-scaling-stroke;fill:none;stroke:#000000;stroke-width:1;stroke-linecap:butt;stroke-linejoin:miter;stroke-miterlimit:3"
       id="circle1385"
       stroke-miterlimit="3"
       r="11.898592"
       cy="185.36902"
       cx="116.55775" />
    <path
       style="vector-effect:non-scaling-stroke;fill:none;stroke:#000000;stroke-width:1;stroke-linecap:square;stroke-linejoin:miter;stroke-miterlimit:3"
       inkscape:connector-curvature="0"
       id="path1387"
       stroke-miterlimit="3"
       d="m 112.231,177.076 5.769,8.293 v 7.572" />
  </g>
  <line
     style="vector-effect:non-scaling-stroke;stroke:#000000;stroke-width:1;stroke-linecap:square;stroke-linejoin:miter;stroke-miterlimit:3"
     id="line1391"
     stroke-miterlimit="3"
     y2="209.88699"
     x2="181.27901"
     y1="209.88699"
     x1="54.721001" />
  <text
     xml:space="preserve"
     style="font-style:normal;font-variant:normal;font-weight:normal;font-stretch:normal;font-size:14.42825603px;line-height:1.25;font-family:Montserrat;-inkscape-font-specification:Montserrat;letter-spacing:0px;word-spacing:0px;fill:#000000;fill-opacity:1;stroke:none;stroke-width:0.36070633"
     x="67.260361"
     y="336.82318"
     id="text817"
     transform="scale(0.79383818,1.2597026)"><tspan
       sodipodi:role="line"
       id="tspan815"
       x="67.260361"
       y="336.82318"
       style="stroke-width:0.36070633"><tspan
         style="font-style:normal;font-variant:normal;font-weight:bold;font-stretch:normal;font-family:Montserrat;-inkscape-font-specification:'Montserrat Bold';stroke-width:0.36070633"
         id="tspan1423">CASA</tspan></tspan></text>
  <text
     transform="scale(0.99405228,1.0059833)"
     id="text1471"
     y="422.0166"
     x="93.66954"
     style="font-style:normal;font-variant:normal;font-weight:normal;font-stretch:normal;font-size:18.06720924px;line-height:1.25;font-family:Montserrat;-inkscape-font-specification:Montserrat;letter-spacing:0px;word-spacing:0px;fill:#000000;fill-opacity:1;stroke:none;stroke-width:0.45168018"
     xml:space="preserve"><tspan
       style="stroke-width:0.45168018"
       y="422.0166"
       x="93.66954"
       id="tspan1469"
       sodipodi:role="line"><tspan
         id="tspan1467"
         style="font-style:normal;font-variant:normal;font-weight:bold;font-stretch:normal;font-family:Montserrat;-inkscape-font-specification:'Montserrat Bold';stroke-width:0.45168018">I<tspan
   style="fill:#ffffff;stroke-width:0.45168018"
   id="tspan1481">KK</tspan>OKU</tspan></tspan></text>
  <text
     xml:space="preserve"
     style="font-style:normal;font-variant:normal;font-weight:normal;font-stretch:normal;font-size:31.77851868px;line-height:1.25;font-family:Montserrat;-inkscape-font-specification:Montserrat;letter-spacing:0px;word-spacing:0px;fill:#000000;fill-opacity:1;stroke:none;stroke-width:0.79446292"
     x="98.026794"
     y="420.32925"
     id="text1479"
     transform="scale(0.98973104,1.0103755)"><tspan
       sodipodi:role="line"
       id="tspan1477"
       x="98.026794"
       y="420.32925"
       style="stroke-width:0.79446292"><tspan
         style="font-style:normal;font-variant:normal;font-weight:bold;font-stretch:normal;font-family:Montserrat;-inkscape-font-specification:'Montserrat Bold';stroke-width:0.79446292"
         id="tspan1475">KK</tspan></tspan></text>
  <rect
     style="fill:#000000;fill-opacity:1;stroke:#5d5d5d;stroke-width:1.125;stroke-miterlimit:4;stroke-dasharray:none;stroke-opacity:1"
     id="rect1586"
     width="127.6823"
     height="86.25"
     x="54.057068"
     y="279.25" />
  <g
     id="g1595"
     transform="matrix(1.1185171,0,0,1.1185171,-13.985027,-37.021179)">
    <path
       style="vector-effect:non-scaling-stroke;fill:none;stroke:#ffffff;stroke-width:2.46747828;stroke-linecap:square;stroke-linejoin:miter;stroke-miterlimit:3.33333325;stroke-dasharray:none"
       inkscape:connector-curvature="0"
       id="path1483"
       stroke-miterlimit="3"
       d="m 94.07836,328.24733 22.7976,-34.81747 25.04568,34.81747" />
    <g
       style="fill:none;stroke:#ffffff;stroke-width:3.55181098;stroke-miterlimit:3.33333325;stroke-dasharray:none"
       transform="matrix(0.69470991,0,0,0.69470991,36.024232,186.44454)"
       id="g1489">
      <circle
         style="vector-effect:non-scaling-stroke;fill:none;stroke:#ffffff;stroke-width:3.55181098;stroke-linecap:butt;stroke-linejoin:miter;stroke-miterlimit:3.33333325;stroke-dasharray:none"
         id="circle1485"
         stroke-miterlimit="3"
         r="11.898592"
         cy="185.36902"
         cx="116.55775" />
      <path
         style="vector-effect:non-scaling-stroke;fill:none;stroke:#ffffff;stroke-width:3.55181098;stroke-linecap:square;stroke-linejoin:miter;stroke-miterlimit:3.33333325;stroke-dasharray:none"
         inkscape:connector-curvature="0"
         id="path1487"
         stroke-miterlimit="3"
         d="m 112.231,177.076 5.769,8.293 v 7.572" />
    </g>
    <line
       style="vector-effect:non-scaling-stroke;fill:#ffffff;stroke:#ffffff;stroke-width:2.46747828;stroke-linecap:square;stroke-linejoin:miter;stroke-miterlimit:3.33333325;stroke-dasharray:none"
       id="line1491"
       stroke-miterlimit="3"
       y2="332.2551"
       x2="161.96056"
       y1="332.2551"
       x1="74.039452" />
  </g>
  <path
     d="m 129.718,424.72975 v -22.319 h 4.498 v 22.319 z"
     id="path1493"
     inkscape:connector-curvature="0"
     style="fill:#5d5d5d" />
  <path
     d="m 99.621,424.72975 v -22.319 h 4.497 v 22.319 z"
     id="path1495"
     inkscape:connector-curvature="0"
     style="fill:#5d5d5d" />
  <path
     inkscape:connector-curvature="0"
     id="path1524"
     style="font-style:normal;font-variant:normal;font-weight:bold;font-stretch:normal;font-size:14.42825603px;line-height:1.25;font-family:Montserrat;-inkscape-font-specification:'Montserrat Bold';letter-spacing:0px;word-spacing:0px;fill:#ff00ff;fill-opacity:1;stroke:none;stroke-width:0.31329536"
     d="m 71.516476,360.84684 q -1.064462,0 -1.929958,-0.72617 -0.855548,-0.74195 -1.35296,-2.03644 -0.487463,-1.31027 -0.487463,-2.95204 0,-1.64179 0.487463,-2.93627 0.497412,-1.31027 1.35296,-2.03645 0.865496,-0.74195 1.939906,-0.74195 0.905289,0 1.631511,0.50516 0.736169,0.50517 1.233581,1.45235 l -1.034616,1.51548 q -0.706325,-1.29447 -1.75089,-1.29447 -0.646635,0 -1.153996,0.4578 -0.50736,0.44202 -0.795858,1.24713 -0.27855,0.8051 -0.27855,1.83122 0,1.02611 0.27855,1.83121 0.288498,0.8051 0.795858,1.26291 0.507361,0.44201 1.153996,0.44201 1.044565,0 1.75089,-1.31026 l 1.034616,1.51549 q -0.497412,0.96297 -1.233581,1.46814 -0.73617,0.50515 -1.641459,0.50515 z" />
  <path
     inkscape:connector-curvature="0"
     id="path1526"
     style="font-style:normal;font-variant:normal;font-weight:bold;font-stretch:normal;font-size:14.42825603px;line-height:1.25;font-family:Montserrat;-inkscape-font-specification:'Montserrat Bold';letter-spacing:0px;word-spacing:0px;fill:#ff00ff;fill-opacity:1;stroke:none;stroke-width:0.31329536"
     d="m 81.737835,358.47889 h -3.233176 l -0.61679,2.36795 h -1.651408 l 3.10385,-11.05045 h 1.591717 l 3.113798,11.05045 h -1.691199 z m -0.50736,-1.94173 -1.104253,-4.23074 -1.104255,4.23074 z" />
  <path
     inkscape:connector-curvature="0"
     id="path1528"
     style="font-style:normal;font-variant:normal;font-weight:bold;font-stretch:normal;font-size:14.42825603px;line-height:1.25;font-family:Montserrat;-inkscape-font-specification:'Montserrat Bold';letter-spacing:0px;word-spacing:0px;fill:#ff00ff;fill-opacity:1;stroke:none;stroke-width:0.31329536"
     d="m 88.726018,360.84684 q -0.825704,0 -1.601666,-0.34729 -0.766014,-0.3631 -1.233581,-0.9314 l 0.547153,-1.92593 q 0.44767,0.52094 1.064461,0.83667 0.616791,0.31572 1.233582,0.31572 0.686428,0 1.014719,-0.31572 0.328292,-0.33152 0.328292,-0.86826 0,-0.39464 -0.198965,-0.64723 -0.189017,-0.26837 -0.497412,-0.42623 -0.298447,-0.15786 -0.815754,-0.3473 -0.79586,-0.29994 -1.303219,-0.59989 -0.507361,-0.29993 -0.875445,-0.96296 -0.358137,-0.66304 -0.358137,-1.76807 0,-0.96298 0.328292,-1.7365 0.328292,-0.78932 0.984875,-1.24712 0.666532,-0.45781 1.621563,-0.45781 0.666532,0 1.303218,0.25258 0.636687,0.25258 1.114203,0.72617 l -0.497412,1.94172 q -0.964979,-0.86825 -1.929958,-0.86825 -0.67648,0 -1.004771,0.34731 -0.318345,0.34729 -0.318345,0.9156 0,0.56832 0.368086,0.85247 0.378033,0.26837 1.144047,0.53674 0.795858,0.29993 1.303219,0.59987 0.50736,0.29995 0.865496,0.94719 0.368085,0.64724 0.368085,1.75228 0,0.94718 -0.33824,1.73651 -0.328292,0.77353 -0.994824,1.23133 -0.666531,0.4578 -1.621562,0.4578 z" />
  <path
     inkscape:connector-curvature="0"
     id="path1530"
     style="font-style:normal;font-variant:normal;font-weight:bold;font-stretch:normal;font-size:14.42825603px;line-height:1.25;font-family:Montserrat;-inkscape-font-specification:'Montserrat Bold';letter-spacing:0px;word-spacing:0px;fill:#ff00ff;fill-opacity:1;stroke:none;stroke-width:0.31329536"
     d="M 99.026964,358.47889 H 95.79379 l -0.616789,2.36795 h -1.651407 l 3.103846,-11.05045 h 1.591724 l 3.113796,11.05045 h -1.691199 z m -0.507359,-1.94173 -1.104249,-4.23074 -1.104257,4.23074 z" />
  <path
     inkscape:connector-curvature="0"
     id="path1513"
     style="font-style:normal;font-variant:normal;font-weight:bold;font-stretch:normal;font-size:18.06720924px;line-height:1.25;font-family:Montserrat;-inkscape-font-specification:'Montserrat Bold';letter-spacing:0px;word-spacing:0px;fill:#ff00ff;fill-opacity:1;stroke:none;stroke-width:0.56697911"
     d="m 127.58098,354.23906 -2.01216,2.35479 v 4.25299 h -3.44632 v -16.8198 h 3.44632 v 7.85725 l 6.63581,-7.85725 h 3.85303 l -6.20767,7.49684 6.57157,9.32296 h -4.04569 z" />
  <path
     inkscape:connector-curvature="0"
     id="path1565"
     style="font-style:normal;font-variant:normal;font-weight:bold;font-stretch:normal;font-size:14.42825603px;line-height:1.25;font-family:Montserrat;-inkscape-font-specification:'Montserrat Bold';letter-spacing:0px;word-spacing:0px;fill:#ffffff;fill-opacity:1;stroke:none;stroke-width:0.58964092"
     d="m 107.62493,344.01407 h 3.7476 v 16.83277 h -3.7476 z" />
  <path
     inkscape:connector-curvature="0"
     id="path1567"
     style="font-style:normal;font-variant:normal;font-weight:bold;font-stretch:normal;font-size:14.42825603px;line-height:1.25;font-family:Montserrat;-inkscape-font-specification:'Montserrat Bold';letter-spacing:0px;word-spacing:0px;fill:#ff00ff;fill-opacity:1;stroke:none;stroke-width:0.33597863"
     d="m 149.83058,360.84684 q -1.24846,0 -2.25638,-0.74113 -0.99648,-0.74113 -1.56916,-2.03418 -0.56123,-1.3088 -0.56123,-2.93299 0,-1.62418 0.56123,-2.91722 0.57268,-1.3088 1.56916,-2.04994 1.00792,-0.74113 2.25638,-0.74113 1.24845,0 2.24492,0.74113 0.99647,0.74114 1.56916,2.04994 0.57268,1.29304 0.57268,2.91722 0,1.62419 -0.57268,2.93299 -0.57269,1.29305 -1.56916,2.03418 -0.99647,0.74113 -2.24492,0.74113 z m 0,-2.17609 q 0.71012,0 1.28281,-0.44152 0.57268,-0.4573 0.89339,-1.26151 0.33216,-0.80421 0.33216,-1.82918 0,-1.02496 -0.33216,-1.82917 -0.32071,-0.8042 -0.89339,-1.24574 -0.57269,-0.4573 -1.28281,-0.4573 -0.71013,0 -1.28282,0.4573 -0.57268,0.44154 -0.90484,1.24574 -0.3207,0.80421 -0.3207,1.82917 0,1.02497 0.3207,1.82918 0.33216,0.80421 0.90484,1.26151 0.57269,0.44152 1.28282,0.44152 z" />
  <path
     inkscape:connector-curvature="0"
     id="path1569"
     style="font-style:normal;font-variant:normal;font-weight:bold;font-stretch:normal;font-size:14.42825603px;line-height:1.25;font-family:Montserrat;-inkscape-font-specification:'Montserrat Bold';letter-spacing:0px;word-spacing:0px;fill:#ff00ff;fill-opacity:1;stroke:none;stroke-width:0.33597863"
     d="m 158.53539,356.51043 -1.07665,1.54534 v 2.79107 h -1.84405 v -11.03813 h 1.84405 v 5.15638 l 3.55064,-5.15638 h 2.06167 l -3.32157,4.91984 3.51628,6.11829 h -2.16475 z" />
  <path
     inkscape:connector-curvature="0"
     id="path1571"
     style="font-style:normal;font-variant:normal;font-weight:bold;font-stretch:normal;font-size:14.42825603px;line-height:1.25;font-family:Montserrat;-inkscape-font-specification:'Montserrat Bold';letter-spacing:0px;word-spacing:0px;fill:#ff00ff;fill-opacity:1;stroke:none;stroke-width:0.33597863"
     d="m 167.53799,360.84684 q -1.71806,0 -2.68017,-1.30881 -0.95065,-1.3088 -0.95065,-3.73719 v -6.18136 h 1.8555 v 6.08675 q 0,2.96452 1.78677,2.96452 0.87048,0 1.32863,-0.70959 0.45815,-0.72537 0.45815,-2.25493 v -6.08675 h 1.83259 v 6.18136 q 0,2.42839 -0.96211,3.73719 -0.95066,1.30881 -2.66871,1.30881 z" />
  <path
     d="m 140.35341,356.51043 -1.07665,1.54534 v 2.79107 h -1.84405 v -11.03813 h 1.84405 v 5.15638 l 3.55064,-5.15638 h 2.06167 l -3.32157,4.91984 3.51628,6.11829 h -2.16475 z"
     style="font-style:normal;font-variant:normal;font-weight:bold;font-stretch:normal;font-size:14.42825603px;line-height:1.25;font-family:Montserrat;-inkscape-font-specification:'Montserrat Bold';letter-spacing:0px;word-spacing:0px;fill:#ff00ff;fill-opacity:1;stroke:none;stroke-width:0.33597863"
     id="path1584"
     inkscape:connector-curvature="0" />
  <path
     d="m 121.82122,344.01407 h 3.7476 v 16.83277 h -3.7476 z"
     style="font-style:normal;font-variant:normal;font-weight:bold;font-stretch:normal;font-size:14.42825603px;line-height:1.25;font-family:Montserrat;-inkscape-font-specification:'Montserrat Bold';letter-spacing:0px;word-spacing:0px;fill:#ffffff;fill-opacity:1;stroke:none;stroke-width:0.58964092"
     id="path1616"
     inkscape:connector-curvature="0" />
</svg>
